<svg width="191" height="60" viewBox="0 0 191 60" fill="none" xmlns="http://www.w3.org/2000/svg">
<path d="M178.087 0H12.4909C5.75201 0 0.289062 5.5306 0.289062 12.3529V47.6471C0.289062 54.4694 5.75201 60 12.4909 60H178.087C184.826 60 190.289 54.4694 190.289 47.6471V12.3529C190.289 5.5306 184.826 0 178.087 0Z" fill="white"/>
<path d="M58.3477 24.5643V14.4226H62.0161C62.9612 14.4226 63.8089 14.6315 64.5592 15.0491C65.3192 15.4571 65.9184 16.04 66.3569 16.7977C66.7954 17.5554 67.0146 18.454 67.0146 19.4934C67.0146 20.5231 66.7954 21.4217 66.3569 22.1891C65.9184 22.9469 65.3192 23.5346 64.5592 23.9523C63.8089 24.3603 62.9612 24.5643 62.0161 24.5643H58.3477ZM59.7361 23.3257H61.9284C62.6104 23.3257 63.2243 23.1751 63.77 22.874C64.3253 22.5729 64.7687 22.1357 65.1 21.5626C65.4312 20.9894 65.5969 20.2997 65.5969 19.4934C65.5969 18.6774 65.4312 17.9877 65.1 17.4243C64.7687 16.8511 64.3253 16.414 63.77 16.1129C63.2243 15.8117 62.6104 15.6611 61.9284 15.6611H59.7361V23.3257ZM71.9754 24.7683C71.2738 24.7683 70.6502 24.6031 70.1046 24.2729C69.5589 23.9426 69.1302 23.4811 68.8185 22.8886C68.5164 22.296 68.3654 21.6112 68.3654 20.834C68.3654 20.0568 68.5164 19.372 68.8185 18.7794C69.1302 18.1869 69.5589 17.7254 70.1046 17.3951C70.6502 17.0649 71.2738 16.8997 71.9754 16.8997C72.6866 16.8997 73.3102 17.0649 73.8462 17.3951C74.3917 17.7254 74.8156 18.1869 75.1177 18.7794C75.4294 19.372 75.5854 20.0568 75.5854 20.834C75.5854 21.6112 75.4294 22.296 75.1177 22.8886C74.8156 23.4811 74.3917 23.9426 73.8462 24.2729C73.3102 24.6031 72.6866 24.7683 71.9754 24.7683ZM71.9754 23.5734C72.6477 23.5734 73.1933 23.3257 73.6123 22.8303C74.041 22.3252 74.2554 21.6597 74.2554 20.834C74.2554 19.9985 74.041 19.3331 73.6123 18.8377C73.1933 18.3423 72.6477 18.0946 71.9754 18.0946C71.3031 18.0946 70.7525 18.3423 70.3238 18.8377C69.9048 19.3331 69.6954 19.9985 69.6954 20.834C69.6954 21.6597 69.9048 22.3252 70.3238 22.8303C70.7525 23.3257 71.3031 23.5734 71.9754 23.5734ZM78.8896 24.5643L76.478 17.1037H77.8227L79.5473 22.7574L81.1696 17.1329H82.3534L84.0342 22.772L85.73 17.1037H87.06L84.6334 24.5643H83.435L81.7688 18.9834L80.088 24.5643H78.8896ZM89.7166 20.1491V24.5643H88.4158V17.1037H89.6873V18.1091C89.9504 17.7206 90.2866 17.4243 90.6958 17.2203C91.105 17.0066 91.553 16.8997 92.0404 16.8997C92.5958 16.8997 93.0678 17.0309 93.4581 17.2931C93.857 17.5554 94.1639 17.9148 94.3789 18.3714C94.593 18.828 94.7004 19.3526 94.7004 19.9451V24.5643H93.3997V20.1929C93.3997 19.542 93.2535 19.032 92.9612 18.6629C92.6783 18.284 92.2493 18.0946 91.675 18.0946C91.3337 18.0946 91.0122 18.1771 90.7104 18.3423C90.4078 18.4977 90.1645 18.7308 89.9796 19.0417C89.8043 19.3428 89.7166 19.712 89.7166 20.1491ZM96.8222 24.5643V14H98.123V24.5643H96.8222ZM103.461 24.7683C102.76 24.7683 102.136 24.6031 101.59 24.2729C101.045 23.9426 100.616 23.4811 100.304 22.8886C100.002 22.296 99.8511 21.6112 99.8511 20.834C99.8511 20.0568 100.002 19.372 100.304 18.7794C100.616 18.1869 101.045 17.7254 101.59 17.3951C102.136 17.0649 102.76 16.8997 103.461 16.8997C104.173 16.8997 104.796 17.0649 105.332 17.3951C105.878 17.7254 106.302 18.1869 106.603 18.7794C106.915 19.372 107.071 20.0568 107.071 20.834C107.071 21.6112 106.915 22.296 106.603 22.8886C106.302 23.4811 105.878 23.9426 105.332 24.2729C104.796 24.6031 104.173 24.7683 103.461 24.7683ZM103.461 23.5734C104.133 23.5734 104.679 23.3257 105.098 22.8303C105.527 22.3252 105.741 21.6597 105.741 20.834C105.741 19.9985 105.527 19.3331 105.098 18.8377C104.679 18.3423 104.133 18.0946 103.461 18.0946C102.789 18.0946 102.239 18.3423 101.81 18.8377C101.391 19.3331 101.181 19.9985 101.181 20.834C101.181 21.6597 101.391 22.3252 101.81 22.8303C102.239 23.3257 102.789 23.5734 103.461 23.5734ZM110.814 24.7683C110.044 24.7683 109.426 24.5643 108.958 24.1563C108.49 23.7386 108.257 23.1751 108.257 22.466C108.257 21.7083 108.529 21.1205 109.075 20.7029C109.63 20.2754 110.415 20.0617 111.428 20.0617H113.197V19.7411C113.197 19.1388 113.04 18.7115 112.729 18.4589C112.426 18.1966 112.008 18.0654 111.472 18.0654C111.023 18.0654 110.654 18.1529 110.361 18.3277C110.069 18.5026 109.888 18.7163 109.82 18.9689H108.505C108.631 18.3569 108.958 17.8614 109.484 17.4826C110.02 17.094 110.687 16.8997 111.487 16.8997C112.412 16.8997 113.142 17.1377 113.679 17.6137C114.224 18.0897 114.497 18.8328 114.497 19.8431V24.5643H113.27V23.4423C113.007 23.8891 112.651 24.2243 112.203 24.4477C111.754 24.6614 111.291 24.7683 110.814 24.7683ZM111.107 23.6317C111.428 23.6317 111.75 23.5589 112.071 23.4131C112.393 23.2674 112.66 23.0537 112.875 22.772C113.089 22.4806 113.197 22.1163 113.197 21.6791V21.1254H111.516C110.902 21.1254 110.424 21.2323 110.084 21.446C109.742 21.6597 109.572 21.9803 109.572 22.4077C109.572 22.806 109.713 23.112 109.996 23.3257C110.288 23.5297 110.658 23.6317 111.107 23.6317ZM119.498 24.7683C118.845 24.7683 118.266 24.6031 117.758 24.2729C117.252 23.9328 116.857 23.4665 116.574 22.874C116.293 22.2815 116.151 21.6014 116.151 20.834C116.151 20.0568 116.293 19.3769 116.574 18.794C116.857 18.2015 117.252 17.74 117.758 17.4097C118.266 17.0697 118.845 16.8997 119.498 16.8997C120.034 16.8997 120.511 17.0212 120.93 17.264C121.349 17.5068 121.69 17.842 121.953 18.2694V14H123.254V24.5643H121.982V23.3549C121.719 23.792 121.379 24.1368 120.959 24.3894C120.54 24.642 120.053 24.7683 119.498 24.7683ZM119.731 23.5734C120.404 23.5734 120.95 23.3208 121.368 22.8157C121.797 22.3106 122.011 21.65 122.011 20.834C122.011 20.018 121.797 19.3574 121.368 18.8523C120.95 18.3472 120.404 18.0946 119.731 18.0946C119.069 18.0946 118.529 18.3472 118.109 18.8523C117.69 19.3477 117.481 20.0083 117.481 20.834C117.481 21.6597 117.69 22.3252 118.109 22.8303C118.529 23.3257 119.069 23.5734 119.731 23.5734ZM131.993 24.7683C131.291 24.7683 130.667 24.6031 130.122 24.2729C129.576 23.9426 129.147 23.4811 128.836 22.8886C128.533 22.296 128.383 21.6112 128.383 20.834C128.383 20.0568 128.533 19.372 128.836 18.7794C129.147 18.1869 129.576 17.7254 130.122 17.3951C130.667 17.0649 131.291 16.8997 131.993 16.8997C132.704 16.8997 133.327 17.0649 133.864 17.3951C134.409 17.7254 134.833 18.1869 135.135 18.7794C135.446 19.372 135.603 20.0568 135.603 20.834C135.603 21.6112 135.446 22.296 135.135 22.8886C134.833 23.4811 134.409 23.9426 133.864 24.2729C133.327 24.6031 132.704 24.7683 131.993 24.7683ZM131.993 23.5734C132.665 23.5734 133.21 23.3257 133.63 22.8303C134.058 22.3252 134.273 21.6597 134.273 20.834C134.273 19.9985 134.058 19.3331 133.63 18.8377C133.21 18.3423 132.665 18.0946 131.993 18.0946C131.321 18.0946 130.769 18.3423 130.341 18.8377C129.922 19.3331 129.713 19.9985 129.713 20.834C129.713 21.6597 129.922 22.3252 130.341 22.8303C130.769 23.3257 131.321 23.5734 131.993 23.5734ZM138.629 20.1491V24.5643H137.328V17.1037H138.6V18.1091C138.863 17.7206 139.199 17.4243 139.608 17.2203C140.018 17.0066 140.465 16.8997 140.953 16.8997C141.508 16.8997 141.981 17.0309 142.371 17.2931C142.77 17.5554 143.077 17.9148 143.291 18.3714C143.505 18.828 143.613 19.3526 143.613 19.9451V24.5643H142.312V20.1929C142.312 19.542 142.166 19.032 141.874 18.6629C141.591 18.284 141.163 18.0946 140.588 18.0946C140.246 18.0946 139.925 18.1771 139.623 18.3423C139.321 18.4977 139.077 18.7308 138.892 19.0417C138.717 19.3428 138.629 19.712 138.629 20.1491ZM151.835 24.6226C151.124 24.6226 150.578 24.4283 150.198 24.0397C149.818 23.6414 149.628 23.0634 149.628 22.3057V18.2694H148.298V17.1037H149.628V14.7286C150.057 14.6994 150.491 14.6169 150.929 14.4809V17.1037H152.566V18.2694H150.929V22.1891C150.929 22.5971 151.026 22.9128 151.222 23.1363C151.426 23.35 151.709 23.4569 152.069 23.4569H152.566V24.6226H151.835ZM154.142 24.5643V14H155.443V18.08C155.706 17.7011 156.037 17.4097 156.437 17.2057C156.846 17.0017 157.289 16.8997 157.767 16.8997C158.322 16.8997 158.794 17.0309 159.184 17.2931C159.583 17.5554 159.89 17.9148 160.105 18.3714C160.319 18.828 160.427 19.3526 160.427 19.9451V24.5643H159.126V20.1929C159.126 19.542 158.98 19.032 158.687 18.6629C158.405 18.284 157.976 18.0946 157.401 18.0946C157.06 18.0946 156.738 18.1771 156.437 18.3423C156.134 18.4977 155.891 18.7308 155.706 19.0417C155.531 19.3428 155.443 19.712 155.443 20.1491V24.5643H154.142ZM165.691 24.7683C164.951 24.7683 164.307 24.608 163.762 24.2874C163.226 23.9669 162.812 23.5103 162.519 22.9177C162.227 22.3252 162.081 21.6257 162.081 20.8194C162.081 20.0617 162.222 19.3914 162.505 18.8086C162.797 18.216 163.206 17.7497 163.732 17.4097C164.268 17.0697 164.907 16.8997 165.647 16.8997C166.358 16.8997 166.957 17.06 167.445 17.3806C167.932 17.6915 168.302 18.1286 168.555 18.692C168.809 19.2457 168.935 19.8965 168.935 20.6446V21.2566H163.425C163.493 22.0143 163.723 22.5971 164.112 23.0051C164.502 23.4035 165.033 23.6026 165.705 23.6026C166.144 23.6026 166.514 23.5297 166.816 23.384C167.128 23.2286 167.333 23.0294 167.43 22.7866H168.775C168.599 23.3889 168.234 23.8697 167.678 24.2291C167.123 24.5885 166.46 24.7683 165.691 24.7683ZM165.632 18.0654C165.018 18.0654 164.522 18.2549 164.142 18.6337C163.771 19.0029 163.542 19.5177 163.455 20.1783H167.62C167.591 19.5468 167.41 19.0368 167.079 18.6483C166.758 18.2597 166.275 18.0654 165.632 18.0654Z" fill="url(#paint0_linear_351_78)"/>
<path d="M65.3277 42.7535L64.5849 40.6089H60.4995L59.7567 42.7535H57.2188L61.2887 32.0152H63.9195L67.9894 42.7535H65.3277ZM61.2423 38.4643H63.8266L62.5422 34.746L61.2423 38.4643ZM69.0994 45.9163V34.7152H71.3433V35.6409C71.6116 35.2706 71.9417 34.9877 72.3337 34.7923C72.7258 34.5866 73.1745 34.4837 73.6801 34.4837C74.3713 34.4837 74.98 34.6637 75.5061 35.0237C76.0426 35.3837 76.4604 35.8877 76.7596 36.5357C77.0691 37.1735 77.2239 37.9089 77.2239 38.742C77.2239 39.5752 77.0691 40.3106 76.7596 40.9483C76.4604 41.586 76.0426 42.0849 75.5061 42.4449C74.98 42.8049 74.3713 42.9849 73.6801 42.9849C73.2055 42.9849 72.7773 42.8923 72.3956 42.7072C72.0242 42.522 71.7044 42.2597 71.4362 41.9203V45.9163H69.0994ZM73.092 40.9329C73.6078 40.9329 74.0257 40.7375 74.3455 40.3466C74.6756 39.9557 74.8407 39.4209 74.8407 38.742C74.8407 38.0632 74.6756 37.5283 74.3455 37.1375C74.0257 36.7363 73.6078 36.5357 73.092 36.5357C72.5762 36.5357 72.1532 36.7363 71.823 37.1375C71.4929 37.5283 71.3278 38.0632 71.3278 38.742C71.3278 39.4209 71.4929 39.9557 71.823 40.3466C72.1532 40.7375 72.5762 40.9329 73.092 40.9329ZM78.6505 45.9163V34.7152H80.8944V35.6409C81.1626 35.2706 81.4928 34.9877 81.8848 34.7923C82.2768 34.5866 82.7256 34.4837 83.2311 34.4837C83.9223 34.4837 84.531 34.6637 85.0568 35.0237C85.5932 35.3837 86.0111 35.8877 86.3102 36.5357C86.6197 37.1735 86.7745 37.9089 86.7745 38.742C86.7745 39.5752 86.6197 40.3106 86.3102 40.9483C86.0111 41.586 85.5932 42.0849 85.0568 42.4449C84.531 42.8049 83.9223 42.9849 83.2311 42.9849C82.7566 42.9849 82.3284 42.8923 81.9467 42.7072C81.5753 42.522 81.2555 42.2597 80.9872 41.9203V45.9163H78.6505ZM82.6431 40.9329C83.1589 40.9329 83.5767 40.7375 83.8965 40.3466C84.2267 39.9557 84.3918 39.4209 84.3918 38.742C84.3918 38.0632 84.2267 37.5283 83.8965 37.1375C83.5767 36.7363 83.1589 36.5357 82.6431 36.5357C82.1272 36.5357 81.7042 36.7363 81.3741 37.1375C81.044 37.5283 80.8789 38.0632 80.8789 38.742C80.8789 39.4209 81.044 39.9557 81.3741 40.3466C81.7042 40.7375 82.1272 40.9329 82.6431 40.9329ZM95.7329 43.0003C94.4123 43.0003 93.3549 42.702 92.5605 42.1055C91.7764 41.4986 91.2657 40.6655 91.0284 39.606H93.5199C93.6334 39.9763 93.881 40.2797 94.2627 40.5163C94.6548 40.7529 95.1345 40.8712 95.7019 40.8712C96.2384 40.8712 96.6717 40.7735 97.0018 40.578C97.332 40.3826 97.497 40.11 97.497 39.7603C97.497 39.5443 97.4454 39.3592 97.3423 39.2049C97.2494 39.0506 97.0586 38.9169 96.7697 38.8037C96.4911 38.6803 96.0682 38.5723 95.5007 38.4797L94.3556 38.2792C93.3652 38.1043 92.6172 37.7752 92.1117 37.2917C91.6165 36.8083 91.3689 36.114 91.3689 35.2089C91.3689 34.4992 91.5546 33.8872 91.926 33.3729C92.2974 32.8586 92.8029 32.4626 93.4425 32.1849C94.0822 31.9072 94.794 31.7683 95.5781 31.7683C96.7645 31.7683 97.7446 32.046 98.5184 32.6015C99.2921 33.1569 99.7615 33.954 99.9266 34.9929H97.4351C97.3423 34.6432 97.1411 34.3757 96.8316 34.1906C96.5324 33.9952 96.1249 33.8975 95.6091 33.8975C95.0726 33.8975 94.6496 33.9952 94.3401 34.1906C94.0409 34.386 93.8913 34.6483 93.8913 34.9775C93.8913 35.2757 94.0151 35.5123 94.2627 35.6872C94.5103 35.862 95.0055 36.0163 95.7483 36.15L96.878 36.3352C98.9826 36.6952 100.035 37.7495 100.035 39.498C100.035 40.2489 99.8492 40.8866 99.4778 41.4112C99.1168 41.9357 98.6112 42.3317 97.9613 42.5992C97.3216 42.8666 96.5788 43.0003 95.7329 43.0003ZM104.734 42.8152C103.899 42.8152 103.249 42.5889 102.784 42.1363C102.33 41.6837 102.103 41.0203 102.103 40.146V36.7209H100.865V34.7152H102.103V32.37C102.495 32.3495 102.888 32.3083 103.28 32.2466C103.682 32.1849 104.074 32.1026 104.456 31.9997V34.7152H105.926V36.7209H104.456V39.8837C104.456 40.1923 104.533 40.4289 104.688 40.5935C104.843 40.7477 105.054 40.8249 105.322 40.8249H105.926V42.8152H104.734ZM111.062 42.9849C110.257 42.9849 109.545 42.8049 108.926 42.4449C108.307 42.0849 107.822 41.586 107.472 40.9483C107.121 40.3003 106.945 39.5597 106.945 38.7266C106.945 37.8935 107.121 37.158 107.472 36.5203C107.822 35.8826 108.307 35.3837 108.926 35.0237C109.545 34.6637 110.257 34.4837 111.062 34.4837C111.877 34.4837 112.594 34.6637 113.213 35.0237C113.832 35.3837 114.317 35.8826 114.668 36.5203C115.018 37.158 115.194 37.8935 115.194 38.7266C115.194 39.5597 115.018 40.3003 114.668 40.9483C114.317 41.586 113.832 42.0849 113.213 42.4449C112.594 42.8049 111.877 42.9849 111.062 42.9849ZM111.062 40.9329C111.578 40.9329 111.995 40.7375 112.315 40.3466C112.645 39.9455 112.811 39.4055 112.811 38.7266C112.811 38.0477 112.645 37.5129 112.315 37.122C111.995 36.7312 111.578 36.5357 111.062 36.5357C110.556 36.5357 110.138 36.7312 109.808 37.122C109.489 37.5129 109.329 38.0477 109.329 38.7266C109.329 39.4055 109.489 39.9455 109.808 40.3466C110.138 40.7375 110.556 40.9329 111.062 40.9329ZM118.965 38.85V42.7535H116.613V34.7152H118.857V36.0112C119.105 35.5792 119.414 35.2449 119.785 35.0083C120.167 34.7717 120.601 34.6535 121.085 34.6535H121.441V36.8443H121.008C120.41 36.8443 119.92 37.0243 119.538 37.3843C119.156 37.7443 118.965 38.2329 118.965 38.85ZM126.234 42.9849C124.965 42.9849 123.97 42.6043 123.248 41.8432C122.525 41.0717 122.164 40.0226 122.164 38.6957C122.164 37.8935 122.324 37.1735 122.644 36.5357C122.974 35.898 123.438 35.3992 124.037 35.0392C124.635 34.6689 125.352 34.4837 126.188 34.4837C127.395 34.4837 128.323 34.8695 128.973 35.6409C129.623 36.402 129.948 37.4357 129.948 38.742V39.4826H124.501C124.676 40.5935 125.259 41.1489 126.25 41.1489C126.58 41.1489 126.848 41.0975 127.054 40.9946C127.261 40.8917 127.405 40.7683 127.488 40.6243H129.825C129.629 41.3443 129.216 41.9203 128.587 42.3523C127.957 42.774 127.173 42.9849 126.234 42.9849ZM126.172 36.3197C125.234 36.3197 124.676 36.8443 124.501 37.8935H127.689C127.668 37.4306 127.529 37.0552 127.271 36.7672C127.024 36.4689 126.657 36.3197 126.172 36.3197Z" fill="url(#paint1_linear_351_78)"/>
<path fill-rule="evenodd" clip-rule="evenodd" d="M40.5712 38.4492C41.3109 37.3242 41.5867 36.7493 42.1509 35.4868C37.9884 33.9118 37.3239 27.9993 41.4362 25.7368C40.1825 24.1618 38.4146 23.2493 36.7471 23.2493C35.5435 23.2493 34.716 23.5618 33.9763 23.8493C33.3494 24.0868 32.7852 24.2993 32.0831 24.2993C31.3308 24.2993 30.6663 24.0618 29.9643 23.8118C29.1995 23.5368 28.397 23.2493 27.394 23.2493C25.5258 23.2493 23.5324 24.3868 22.2661 26.3368C20.4858 29.0868 20.7991 34.2368 23.6703 38.6368C24.6984 40.2118 26.0775 41.9742 27.8704 41.9993C28.6227 42.0118 29.1117 41.7868 29.6508 41.5493C30.2652 41.2743 30.9297 40.9743 32.0956 40.9743C33.2617 40.9618 33.9136 41.2743 34.528 41.5493C35.0546 41.7868 35.531 42.0118 36.2707 41.9993C38.0887 41.9742 39.543 40.0243 40.5712 38.4492Z" fill="url(#paint2_linear_351_78)"/>
<path fill-rule="evenodd" clip-rule="evenodd" d="M36.4854 17C36.686 18.375 36.1218 19.7375 35.3821 20.6875C34.5922 21.7125 33.2131 22.5125 31.8841 22.4625C31.6459 21.1375 32.2602 19.775 33.0125 18.8625C33.8524 17.8625 35.2693 17.0875 36.4854 17Z" fill="url(#paint3_linear_351_78)"/>
<defs>
<linearGradient id="paint0_linear_351_78" x1="57.0323" y1="9.99286" x2="63.6134" y2="47.4712" gradientUnits="userSpaceOnUse">
<stop stop-color="#1E3E59"/>
<stop offset="1" stop-color="#062938"/>
</linearGradient>
<linearGradient id="paint1_linear_351_78" x1="57.033" y1="27.3249" x2="67.5086" y2="64.7856" gradientUnits="userSpaceOnUse">
<stop stop-color="#1E3E59"/>
<stop offset="1" stop-color="#062938"/>
</linearGradient>
<linearGradient id="paint2_linear_351_78" x1="21.164" y1="23.2493" x2="40.3312" y2="43.7048" gradientUnits="userSpaceOnUse">
<stop stop-color="#1E3E59"/>
<stop offset="1" stop-color="#062938"/>
</linearGradient>
<linearGradient id="paint3_linear_351_78" x1="31.832" y1="17" x2="37.3203" y2="21.4953" gradientUnits="userSpaceOnUse">
<stop stop-color="#1E3E59"/>
<stop offset="1" stop-color="#062938"/>
</linearGradient>
</defs>
</svg>
