<svg width="190" height="60" viewBox="0 0 190 60" fill="none" xmlns="http://www.w3.org/2000/svg">
<path d="M177.798 0H12.2018C5.46295 0 0 5.5306 0 12.3529V47.6471C0 54.4694 5.46295 60 12.2018 60H177.798C184.537 60 190 54.4694 190 47.6471V12.3529C190 5.5306 184.537 0 177.798 0Z" fill="black"/>
<path d="M58.0586 24.5643V14.4226H61.7271C62.6722 14.4226 63.5198 14.6315 64.2701 15.0491C65.0301 15.4571 65.6294 16.04 66.0678 16.7977C66.5063 17.5554 66.7255 18.454 66.7255 19.4934C66.7255 20.5231 66.5063 21.4217 66.0678 22.1891C65.6294 22.9469 65.0301 23.5346 64.2701 23.9523C63.5198 24.3603 62.6722 24.5643 61.7271 24.5643H58.0586ZM59.4471 23.3257H61.6394C62.3214 23.3257 62.9352 23.1751 63.4809 22.874C64.0363 22.5729 64.4797 22.1357 64.8109 21.5626C65.1422 20.9894 65.3078 20.2997 65.3078 19.4934C65.3078 18.6774 65.1422 17.9877 64.8109 17.4243C64.4797 16.8511 64.0363 16.414 63.4809 16.1129C62.9352 15.8117 62.3214 15.6611 61.6394 15.6611H59.4471V23.3257ZM71.6863 24.7683C70.9848 24.7683 70.3611 24.6031 69.8156 24.2729C69.2699 23.9426 68.8411 23.4811 68.5294 22.8886C68.2273 22.296 68.0763 21.6112 68.0763 20.834C68.0763 20.0568 68.2273 19.372 68.5294 18.7794C68.8411 18.1869 69.2699 17.7254 69.8156 17.3951C70.3611 17.0649 70.9848 16.8997 71.6863 16.8997C72.3976 16.8997 73.0211 17.0649 73.5571 17.3951C74.1027 17.7254 74.5265 18.1869 74.8286 18.7794C75.1404 19.372 75.2963 20.0568 75.2963 20.834C75.2963 21.6112 75.1404 22.296 74.8286 22.8886C74.5265 23.4811 74.1027 23.9426 73.5571 24.2729C73.0211 24.6031 72.3976 24.7683 71.6863 24.7683ZM71.6863 23.5734C72.3586 23.5734 72.9042 23.3257 73.3232 22.8303C73.7519 22.3252 73.9663 21.6597 73.9663 20.834C73.9663 19.9985 73.7519 19.3331 73.3232 18.8377C72.9042 18.3423 72.3586 18.0946 71.6863 18.0946C71.014 18.0946 70.4634 18.3423 70.0348 18.8377C69.6158 19.3331 69.4063 19.9985 69.4063 20.834C69.4063 21.6597 69.6158 22.3252 70.0348 22.8303C70.4634 23.3257 71.014 23.5734 71.6863 23.5734ZM78.6005 24.5643L76.189 17.1037H77.5336L79.2582 22.7574L80.8805 17.1329H82.0644L83.7451 22.772L85.4409 17.1037H86.7709L84.3444 24.5643H83.1459L81.4797 18.9834L79.799 24.5643H78.6005ZM89.4275 20.1491V24.5643H88.1267V17.1037H89.3983V18.1091C89.6614 17.7206 89.9975 17.4243 90.4067 17.2203C90.816 17.0066 91.2639 16.8997 91.7514 16.8997C92.3067 16.8997 92.7787 17.0309 93.1691 17.2931C93.568 17.5554 93.8749 17.9148 94.0898 18.3714C94.3039 18.828 94.4114 19.3526 94.4114 19.9451V24.5643H93.1106V20.1929C93.1106 19.542 92.9644 19.032 92.6721 18.6629C92.3893 18.284 91.9603 18.0946 91.386 18.0946C91.0447 18.0946 90.7231 18.1771 90.4214 18.3423C90.1187 18.4977 89.8754 18.7308 89.6906 19.0417C89.5152 19.3428 89.4275 19.712 89.4275 20.1491ZM96.5332 24.5643V14H97.8339V24.5643H96.5332ZM103.172 24.7683C102.47 24.7683 101.847 24.6031 101.301 24.2729C100.756 23.9426 100.327 23.4811 100.015 22.8886C99.7133 22.296 99.562 21.6112 99.562 20.834C99.562 20.0568 99.7133 19.372 100.015 18.7794C100.327 18.1869 100.756 17.7254 101.301 17.3951C101.847 17.0649 102.47 16.8997 103.172 16.8997C103.884 16.8997 104.507 17.0649 105.043 17.3951C105.589 17.7254 106.013 18.1869 106.314 18.7794C106.626 19.372 106.782 20.0568 106.782 20.834C106.782 21.6112 106.626 22.296 106.314 22.8886C106.013 23.4811 105.589 23.9426 105.043 24.2729C104.507 24.6031 103.884 24.7683 103.172 24.7683ZM103.172 23.5734C103.844 23.5734 104.39 23.3257 104.809 22.8303C105.238 22.3252 105.452 21.6597 105.452 20.834C105.452 19.9985 105.238 19.3331 104.809 18.8377C104.39 18.3423 103.844 18.0946 103.172 18.0946C102.5 18.0946 101.949 18.3423 101.52 18.8377C101.102 19.3331 100.892 19.9985 100.892 20.834C100.892 21.6597 101.102 22.3252 101.52 22.8303C101.949 23.3257 102.5 23.5734 103.172 23.5734ZM110.525 24.7683C109.755 24.7683 109.137 24.5643 108.669 24.1563C108.201 23.7386 107.968 23.1751 107.968 22.466C107.968 21.7083 108.24 21.1205 108.786 20.7029C109.341 20.2754 110.125 20.0617 111.139 20.0617H112.908V19.7411C112.908 19.1388 112.751 18.7115 112.44 18.4589C112.137 18.1966 111.719 18.0654 111.183 18.0654C110.734 18.0654 110.364 18.1529 110.072 18.3277C109.78 18.5026 109.599 18.7163 109.531 18.9689H108.216C108.342 18.3569 108.669 17.8614 109.195 17.4826C109.731 17.094 110.398 16.8997 111.198 16.8997C112.123 16.8997 112.853 17.1377 113.39 17.6137C113.935 18.0897 114.208 18.8328 114.208 19.8431V24.5643H112.981V23.4423C112.718 23.8891 112.362 24.2243 111.914 24.4477C111.465 24.6614 111.002 24.7683 110.525 24.7683ZM110.818 23.6317C111.139 23.6317 111.461 23.5589 111.782 23.4131C112.104 23.2674 112.371 23.0537 112.586 22.772C112.8 22.4806 112.908 22.1163 112.908 21.6791V21.1254H111.227C110.613 21.1254 110.135 21.2323 109.794 21.446C109.453 21.6597 109.283 21.9803 109.283 22.4077C109.283 22.806 109.424 23.112 109.707 23.3257C109.999 23.5297 110.369 23.6317 110.818 23.6317ZM119.209 24.7683C118.556 24.7683 117.977 24.6031 117.469 24.2729C116.963 23.9328 116.568 23.4665 116.285 22.874C116.003 22.2815 115.862 21.6014 115.862 20.834C115.862 20.0568 116.003 19.3769 116.285 18.794C116.568 18.2015 116.963 17.74 117.469 17.4097C117.977 17.0697 118.556 16.8997 119.209 16.8997C119.745 16.8997 120.222 17.0212 120.641 17.264C121.06 17.5068 121.401 17.842 121.664 18.2694V14H122.965V24.5643H121.693V23.3549C121.43 23.792 121.09 24.1368 120.67 24.3894C120.251 24.642 119.764 24.7683 119.209 24.7683ZM119.442 23.5734C120.115 23.5734 120.661 23.3208 121.079 22.8157C121.508 22.3106 121.722 21.65 121.722 20.834C121.722 20.018 121.508 19.3574 121.079 18.8523C120.661 18.3472 120.115 18.0946 119.442 18.0946C118.78 18.0946 118.24 18.3472 117.82 18.8523C117.401 19.3477 117.192 20.0083 117.192 20.834C117.192 21.6597 117.401 22.3252 117.82 22.8303C118.24 23.3257 118.78 23.5734 119.442 23.5734ZM131.704 24.7683C131.002 24.7683 130.378 24.6031 129.833 24.2729C129.287 23.9426 128.858 23.4811 128.547 22.8886C128.244 22.296 128.094 21.6112 128.094 20.834C128.094 20.0568 128.244 19.372 128.547 18.7794C128.858 18.1869 129.287 17.7254 129.833 17.3951C130.378 17.0649 131.002 16.8997 131.704 16.8997C132.415 16.8997 133.038 17.0649 133.575 17.3951C134.12 17.7254 134.543 18.1869 134.846 18.7794C135.157 19.372 135.314 20.0568 135.314 20.834C135.314 21.6112 135.157 22.296 134.846 22.8886C134.543 23.4811 134.12 23.9426 133.575 24.2729C133.038 24.6031 132.415 24.7683 131.704 24.7683ZM131.704 23.5734C132.376 23.5734 132.921 23.3257 133.341 22.8303C133.769 22.3252 133.984 21.6597 133.984 20.834C133.984 19.9985 133.769 19.3331 133.341 18.8377C132.921 18.3423 132.376 18.0946 131.704 18.0946C131.031 18.0946 130.48 18.3423 130.052 18.8377C129.633 19.3331 129.424 19.9985 129.424 20.834C129.424 21.6597 129.633 22.3252 130.052 22.8303C130.48 23.3257 131.031 23.5734 131.704 23.5734ZM138.34 20.1491V24.5643H137.039V17.1037H138.311V18.1091C138.574 17.7206 138.91 17.4243 139.319 17.2203C139.729 17.0066 140.176 16.8997 140.664 16.8997C141.219 16.8997 141.692 17.0309 142.082 17.2931C142.481 17.5554 142.788 17.9148 143.002 18.3714C143.216 18.828 143.324 19.3526 143.324 19.9451V24.5643H142.023V20.1929C142.023 19.542 141.877 19.032 141.585 18.6629C141.302 18.284 140.874 18.0946 140.299 18.0946C139.957 18.0946 139.636 18.1771 139.334 18.3423C139.032 18.4977 138.788 18.7308 138.603 19.0417C138.428 19.3428 138.34 19.712 138.34 20.1491ZM151.546 24.6226C150.835 24.6226 150.289 24.4283 149.909 24.0397C149.529 23.6414 149.339 23.0634 149.339 22.3057V18.2694H148.009V17.1037H149.339V14.7286C149.768 14.6994 150.202 14.6169 150.64 14.4809V17.1037H152.277V18.2694H150.64V22.1891C150.64 22.5971 150.737 22.9128 150.932 23.1363C151.137 23.35 151.42 23.4569 151.78 23.4569H152.277V24.6226H151.546ZM153.853 24.5643V14H155.154V18.08C155.417 17.7011 155.748 17.4097 156.148 17.2057C156.557 17.0017 157 16.8997 157.478 16.8997C158.033 16.8997 158.505 17.0309 158.895 17.2931C159.294 17.5554 159.601 17.9148 159.816 18.3714C160.03 18.828 160.138 19.3526 160.138 19.9451V24.5643H158.837V20.1929C158.837 19.542 158.691 19.032 158.398 18.6629C158.116 18.284 157.687 18.0946 157.112 18.0946C156.771 18.0946 156.449 18.1771 156.148 18.3423C155.845 18.4977 155.602 18.7308 155.417 19.0417C155.241 19.3428 155.154 19.712 155.154 20.1491V24.5643H153.853ZM165.402 24.7683C164.661 24.7683 164.018 24.608 163.472 24.2874C162.937 23.9669 162.522 23.5103 162.23 22.9177C161.938 22.3252 161.792 21.6257 161.792 20.8194C161.792 20.0617 161.933 19.3914 162.216 18.8086C162.508 18.216 162.917 17.7497 163.443 17.4097C163.979 17.0697 164.618 16.8997 165.358 16.8997C166.069 16.8997 166.668 17.06 167.156 17.3806C167.643 17.6915 168.013 18.1286 168.266 18.692C168.52 19.2457 168.646 19.8965 168.646 20.6446V21.2566H163.136C163.204 22.0143 163.434 22.5971 163.823 23.0051C164.213 23.4035 164.744 23.6026 165.416 23.6026C165.855 23.6026 166.225 23.5297 166.527 23.384C166.839 23.2286 167.044 23.0294 167.141 22.7866H168.486C168.31 23.3889 167.945 23.8697 167.389 24.2291C166.834 24.5885 166.171 24.7683 165.402 24.7683ZM165.343 18.0654C164.729 18.0654 164.232 18.2549 163.852 18.6337C163.482 19.0029 163.253 19.5177 163.166 20.1783H167.331C167.302 19.5468 167.121 19.0368 166.79 18.6483C166.469 18.2597 165.986 18.0654 165.343 18.0654Z" fill="white"/>
<path d="M65.0386 42.7535L64.2958 40.6089H60.2104L59.4676 42.7535H56.9297L60.9996 32.0152H63.6304L67.7004 42.7535H65.0386ZM60.9532 38.4643H63.5376L62.2531 34.746L60.9532 38.4643ZM68.8104 45.9163V34.7152H71.0543V35.6409C71.3225 35.2706 71.6526 34.9877 72.0447 34.7923C72.4367 34.5866 72.8855 34.4837 73.391 34.4837C74.0822 34.4837 74.6909 34.6637 75.2171 35.0237C75.7535 35.3837 76.1714 35.8877 76.4705 36.5357C76.78 37.1735 76.9348 37.9089 76.9348 38.742C76.9348 39.5752 76.78 40.3106 76.4705 40.9483C76.1714 41.586 75.7535 42.0849 75.2171 42.4449C74.6909 42.8049 74.0822 42.9849 73.391 42.9849C72.9164 42.9849 72.4883 42.8923 72.1066 42.7072C71.7352 42.522 71.4153 42.2597 71.1471 41.9203V45.9163H68.8104ZM72.8029 40.9329C73.3188 40.9329 73.7366 40.7375 74.0564 40.3466C74.3866 39.9557 74.5516 39.4209 74.5516 38.742C74.5516 38.0632 74.3866 37.5283 74.0564 37.1375C73.7366 36.7363 73.3188 36.5357 72.8029 36.5357C72.2871 36.5357 71.8641 36.7363 71.534 37.1375C71.2038 37.5283 71.0388 38.0632 71.0388 38.742C71.0388 39.4209 71.2038 39.9557 71.534 40.3466C71.8641 40.7375 72.2871 40.9329 72.8029 40.9329ZM78.3614 45.9163V34.7152H80.6053V35.6409C80.8736 35.2706 81.2037 34.9877 81.5957 34.7923C81.9878 34.5866 82.4365 34.4837 82.9421 34.4837C83.6333 34.4837 84.242 34.6637 84.7677 35.0237C85.3042 35.3837 85.722 35.8877 86.0212 36.5357C86.3307 37.1735 86.4854 37.9089 86.4854 38.742C86.4854 39.5752 86.3307 40.3106 86.0212 40.9483C85.722 41.586 85.3042 42.0849 84.7677 42.4449C84.242 42.8049 83.6333 42.9849 82.9421 42.9849C82.4675 42.9849 82.0393 42.8923 81.6576 42.7072C81.2862 42.522 80.9664 42.2597 80.6982 41.9203V45.9163H78.3614ZM82.354 40.9329C82.8698 40.9329 83.2877 40.7375 83.6075 40.3466C83.9376 39.9557 84.1027 39.4209 84.1027 38.742C84.1027 38.0632 83.9376 37.5283 83.6075 37.1375C83.2877 36.7363 82.8698 36.5357 82.354 36.5357C81.8382 36.5357 81.4152 36.7363 81.085 37.1375C80.7549 37.5283 80.5898 38.0632 80.5898 38.742C80.5898 39.4209 80.7549 39.9557 81.085 40.3466C81.4152 40.7375 81.8382 40.9329 82.354 40.9329ZM95.4438 43.0003C94.1233 43.0003 93.0658 42.702 92.2714 42.1055C91.4873 41.4986 90.9767 40.6655 90.7394 39.606H93.2309C93.3443 39.9763 93.5919 40.2797 93.9737 40.5163C94.3657 40.7529 94.8454 40.8712 95.4128 40.8712C95.9493 40.8712 96.3826 40.7735 96.7128 40.578C97.0429 40.3826 97.208 40.11 97.208 39.7603C97.208 39.5443 97.1564 39.3592 97.0532 39.2049C96.9604 39.0506 96.7695 38.9169 96.4806 38.8037C96.2021 38.6803 95.7791 38.5723 95.2117 38.4797L94.0665 38.2792C93.0761 38.1043 92.3281 37.7752 91.8226 37.2917C91.3274 36.8083 91.0798 36.114 91.0798 35.2089C91.0798 34.4992 91.2655 33.8872 91.6369 33.3729C92.0083 32.8586 92.5138 32.4626 93.1535 32.1849C93.7931 31.9072 94.505 31.7683 95.289 31.7683C96.4755 31.7683 97.4556 32.046 98.2293 32.6015C99.0031 33.1569 99.4725 33.954 99.6376 34.9929H97.1461C97.0532 34.6432 96.852 34.3757 96.5425 34.1906C96.2433 33.9952 95.8358 33.8975 95.32 33.8975C94.7835 33.8975 94.3605 33.9952 94.051 34.1906C93.7519 34.386 93.6023 34.6483 93.6023 34.9775C93.6023 35.2757 93.7261 35.5123 93.9737 35.6872C94.2213 35.862 94.7165 36.0163 95.4593 36.15L96.589 36.3352C98.6936 36.6952 99.7459 37.7495 99.7459 39.498C99.7459 40.2489 99.5602 40.8866 99.1888 41.4112C98.8277 41.9357 98.3222 42.3317 97.6722 42.5992C97.0326 42.8666 96.2898 43.0003 95.4438 43.0003ZM104.445 42.8152C103.61 42.8152 102.96 42.5889 102.495 42.1363C102.041 41.6837 101.814 41.0203 101.814 40.146V36.7209H100.576V34.7152H101.814V32.37C102.206 32.3495 102.598 32.3083 102.99 32.2466C103.393 32.1849 103.785 32.1026 104.167 31.9997V34.7152H105.637V36.7209H104.167V39.8837C104.167 40.1923 104.244 40.4289 104.399 40.5935C104.553 40.7477 104.765 40.8249 105.033 40.8249H105.637V42.8152H104.445ZM110.773 42.9849C109.968 42.9849 109.256 42.8049 108.637 42.4449C108.018 42.0849 107.533 41.586 107.183 40.9483C106.832 40.3003 106.656 39.5597 106.656 38.7266C106.656 37.8935 106.832 37.158 107.183 36.5203C107.533 35.8826 108.018 35.3837 108.637 35.0237C109.256 34.6637 109.968 34.4837 110.773 34.4837C111.588 34.4837 112.305 34.6637 112.924 35.0237C113.543 35.3837 114.028 35.8826 114.378 36.5203C114.729 37.158 114.905 37.8935 114.905 38.7266C114.905 39.5597 114.729 40.3003 114.378 40.9483C114.028 41.586 113.543 42.0849 112.924 42.4449C112.305 42.8049 111.588 42.9849 110.773 42.9849ZM110.773 40.9329C111.289 40.9329 111.706 40.7375 112.026 40.3466C112.356 39.9455 112.521 39.4055 112.521 38.7266C112.521 38.0477 112.356 37.5129 112.026 37.122C111.706 36.7312 111.289 36.5357 110.773 36.5357C110.267 36.5357 109.849 36.7312 109.519 37.122C109.199 37.5129 109.04 38.0477 109.04 38.7266C109.04 39.4055 109.199 39.9455 109.519 40.3466C109.849 40.7375 110.267 40.9329 110.773 40.9329ZM118.676 38.85V42.7535H116.324V34.7152H118.568V36.0112C118.816 35.5792 119.125 35.2449 119.496 35.0083C119.878 34.7717 120.311 34.6535 120.796 34.6535H121.152V36.8443H120.719C120.121 36.8443 119.631 37.0243 119.249 37.3843C118.867 37.7443 118.676 38.2329 118.676 38.85ZM125.945 42.9849C124.676 42.9849 123.681 42.6043 122.959 41.8432C122.236 41.0717 121.875 40.0226 121.875 38.6957C121.875 37.8935 122.035 37.1735 122.355 36.5357C122.685 35.898 123.149 35.3992 123.748 35.0392C124.346 34.6689 125.063 34.4837 125.899 34.4837C127.106 34.4837 128.034 34.8695 128.684 35.6409C129.334 36.402 129.659 37.4357 129.659 38.742V39.4826H124.212C124.387 40.5935 124.97 41.1489 125.961 41.1489C126.291 41.1489 126.559 41.0975 126.765 40.9946C126.972 40.8917 127.116 40.7683 127.199 40.6243H129.535C129.339 41.3443 128.927 41.9203 128.297 42.3523C127.668 42.774 126.884 42.9849 125.945 42.9849ZM125.883 36.3197C124.945 36.3197 124.387 36.8443 124.212 37.8935H127.4C127.379 37.4306 127.24 37.0552 126.982 36.7672C126.734 36.4689 126.368 36.3197 125.883 36.3197Z" fill="white"/>
<path fill-rule="evenodd" clip-rule="evenodd" d="M40.2821 38.4492C41.0218 37.3242 41.2976 36.7493 41.8619 35.4868C37.6993 33.9118 37.0348 27.9993 41.1472 25.7368C39.8934 24.1618 38.1256 23.2493 36.458 23.2493C35.2544 23.2493 34.4269 23.5618 33.6872 23.8493C33.0603 24.0868 32.4962 24.2993 31.794 24.2993C31.0418 24.2993 30.3773 24.0618 29.6752 23.8118C28.9104 23.5368 28.1079 23.2493 27.105 23.2493C25.2368 23.2493 23.2433 24.3868 21.977 26.3368C20.1967 29.0868 20.5101 34.2368 23.3812 38.6368C24.4094 40.2118 25.7885 41.9742 27.5813 41.9993C28.3336 42.0118 28.8226 41.7868 29.3618 41.5493C29.9761 41.2743 30.6406 40.9743 31.8066 40.9743C32.9726 40.9618 33.6245 41.2743 34.2389 41.5493C34.7655 41.7868 35.242 42.0118 35.9817 41.9993C37.7996 41.9742 39.254 40.0243 40.2821 38.4492Z" fill="white"/>
<path fill-rule="evenodd" clip-rule="evenodd" d="M36.1963 17C36.397 18.375 35.8327 19.7375 35.093 20.6875C34.3032 21.7125 32.924 22.5125 31.595 22.4625C31.3568 21.1375 31.9712 19.775 32.7234 18.8625C33.5634 17.8625 34.9802 17.0875 36.1963 17Z" fill="white"/>
</svg>
