<svg width="1920" height="158" viewBox="0 0 1920 158" fill="none" xmlns="http://www.w3.org/2000/svg">
<mask id="mask0_10_11" style="mask-type:alpha" maskUnits="userSpaceOnUse" x="0" y="0" width="1920" height="158">
<rect width="1920" height="158" fill="#D9D9D9"/>
</mask>
<g mask="url(#mask0_10_11)">
<path d="M1920 905.729C1919.83 619.526 1919.66 353.33 1919.5 67.1387C1903.54 67.368 1887.87 63.2696 1874.5 55.3708C1869 63.047 1844.28 95.6798 1795.5 106.968C1740.82 119.641 1697.75 95.7522 1690.5 91.5792C1679.2 97.9288 1666.86 102.607 1653.93 105.438C1635.07 109.716 1615.31 109.62 1596.5 105.157C1562.43 97.0105 1542.02 77.0326 1533.5 67.1387C1532.25 65.6903 1531.26 64.423 1530.5 63.5178C1525.89 64.9662 1505.13 70.9766 1482.5 61.7073C1469.75 56.3996 1459.23 47.5112 1452.5 36.3615C1450.12 38.2352 1425.12 57.1814 1391.5 49.9397C1357.23 42.517 1344.56 14.4102 1343.5 11.9209C1337 16.9306 1328.64 19.5282 1320.11 19.1924C1311.58 18.8566 1303.5 15.6122 1297.5 10.1103C1294.08 13.7946 1281.98 25.9335 1261.5 29.1199C1232.84 33.5826 1212.04 16.7547 1209.5 14.6365C1208.61 19.0326 1206.11 23.0291 1202.41 25.9795C1198.7 28.9298 1194 30.6613 1189.07 30.8938C1184.14 31.1263 1179.26 29.8462 1175.24 27.2605C1171.21 24.6748 1168.27 20.9349 1166.88 16.646C1170.23 33.4286 1156.26 47.7852 1141.5 48.1292C1127.18 48.455 1112.74 35.5739 1114.19 19.1625C1112.88 22.9471 1110.33 26.2791 1106.87 28.7104C1103.41 31.1418 1099.21 32.5562 1094.84 32.7632C1090.46 32.9702 1086.12 31.96 1082.4 29.8684C1078.68 27.7768 1075.75 24.7042 1074.02 21.0635C1072.62 26.7303 1069.21 31.8261 1064.31 35.5728C1059.4 39.3194 1053.28 41.5108 1046.88 41.8125C1040.47 42.1142 1034.13 40.5095 1028.83 37.2434C1023.52 33.9773 1019.54 29.2293 1017.5 23.7247C1018.81 49.3512 997.84 71.5651 970.5 74.4165C942 77.3946 915.16 58.4395 911.5 31.8716C909.307 34.9805 906.132 37.4203 902.386 38.8733C898.641 40.3263 894.499 40.7253 890.5 40.0186C880.8 38.1086 876.86 29.9345 876.5 29.156C871.954 37.7132 864.47 44.7089 855.168 49.0975C845.866 53.4861 835.245 55.0319 824.892 53.5039C814.539 51.9759 805.01 47.4563 797.729 40.6204C790.449 33.7844 785.808 24.9992 784.5 15.5779C781.2 24.8834 772.64 31.419 763.5 31.8716C751.14 32.4781 738.5 21.9143 738.5 7.43091C737.57 8.42664 719.02 27.762 691.5 23.7247C669.24 20.4569 658.1 4.39856 656.5 1.99976C654.5 5.13178 642.32 23.5165 617.5 28.2507C595.5 32.4419 572.25 24.304 557.5 7.43091C555.164 10.2196 552.061 12.4046 548.5 13.7675C544.062 15.4235 539.153 15.7408 534.5 14.6726C534.08 16.2024 524.73 48.0568 492.63 61.8612C489.361 63.2704 485.974 64.4418 482.5 65.3644C464.507 70.0153 445.243 68.4007 428.5 60.8384C415.548 55.0952 404.508 46.3502 396.5 35.4924C389.575 43.2649 380.351 49.0942 369.904 52.2998C359.457 55.5054 348.219 55.9553 337.5 53.5967C331.88 62.3048 314.16 87.1708 278.5 100.668C232.89 117.921 191.85 103.736 183.5 100.668C164.828 116.282 142.14 127.425 117.5 133.083C107.027 135.443 96.2912 136.716 85.5 136.876C42 137.5 11 120.157 0 113.304V905.729H1920Z" fill="#D9F0FF"/>
<path d="M1533.87 67.1392C1532.62 65.6908 1531.63 64.4236 1530.87 63.5183C1526.26 64.9667 1505.5 70.9773 1482.87 61.7079C1470.12 56.4003 1459.6 47.5118 1452.87 36.3621C1450.49 38.2359 1425.49 57.1819 1391.87 49.9402C1357.6 42.5175 1344.93 14.4107 1343.87 11.9214C1337.37 16.9311 1329.01 19.5287 1320.48 19.1929C1311.95 18.8571 1303.87 15.6128 1297.87 10.111C1294.45 13.7952 1282.35 25.9341 1261.87 29.1204C1233.21 33.5831 1212.41 16.7552 1209.87 14.637C1208.98 19.0332 1206.48 23.0298 1202.78 25.9801C1199.07 28.9305 1194.37 30.6619 1189.44 30.8944C1184.51 31.1269 1179.63 29.8467 1175.61 27.2611C1171.58 24.6754 1168.64 20.9355 1167.25 16.6466C1170.6 33.4292 1156.63 47.7858 1141.87 48.1298C1127.55 48.4557 1113.11 35.5745 1114.56 19.1631C1113.25 22.9477 1110.7 26.2797 1107.24 28.7111C1103.78 31.1425 1099.58 32.5567 1095.21 32.7637C1090.83 32.9707 1086.49 31.9605 1082.77 29.869C1079.05 27.7774 1076.12 24.7047 1074.39 21.064C1072.99 26.7308 1069.58 31.8267 1064.68 35.5733C1059.77 39.32 1053.65 41.5114 1047.25 41.8131C1040.84 42.1148 1034.5 40.5101 1029.2 37.244C1023.89 33.9779 1019.91 29.2299 1017.87 23.7253C1019.18 49.3518 998.21 71.5656 970.87 74.417C942.37 77.3952 915.53 58.4401 911.87 31.8722C909.677 34.9812 906.502 37.4208 902.756 38.8738C899.011 40.3268 894.869 40.7259 890.87 40.0191C881.17 38.1091 877.23 29.9351 876.87 29.1566C872.324 37.7138 864.84 44.7096 855.538 49.0981C846.236 53.4867 835.615 55.0326 825.262 53.5046C814.909 51.9766 805.38 47.4568 798.099 40.6208C790.819 33.7848 786.178 24.9997 784.87 15.5784C781.57 24.884 773.01 31.4196 763.87 31.8722C751.51 32.4787 738.87 21.9149 738.87 7.43156C737.94 8.42729 719.39 27.7626 691.87 23.7253C669.61 20.4575 658.47 4.39911 656.87 2.00031C654.87 5.13233 642.69 23.5171 617.87 28.2514C595.87 32.4425 572.62 24.3047 557.87 7.43156C555.534 10.2202 552.431 12.4052 548.87 13.768C544.432 15.424 539.523 15.7415 534.87 14.6732C534.45 16.203 525.1 48.0574 493 61.8618C511.23 79.6763 538.51 86.7188 562.87 79.8483C592.24 71.5656 603.42 46.9892 604.87 43.6399C606.25 44.7352 618.6 54.258 633.87 50.8816C639.176 49.6622 644.016 47.1589 647.87 43.6399C650.36 46.0116 663.36 57.906 683.87 58.1233C694.232 58.1714 704.359 55.3266 712.87 49.9764C711.59 100.894 753.11 144.335 806.87 150.455C857.23 156.185 906.59 127.824 922.87 82.5639C925.08 83.5868 958.5 98.4232 988.87 81.6587C1006.87 71.7014 1013.76 56.3129 1015.87 50.8816C1040.72 83.3515 1082.87 100.342 1123.87 94.3316C1173.46 87.09 1197.72 49.6053 1200.87 44.5451C1203.61 47.2608 1218.42 61.6445 1242.87 62.6493C1257.32 63.1394 1271.5 58.9691 1282.87 50.8816C1288.29 77.3318 1313.95 96.4408 1342.87 96.1421C1370.22 95.8615 1394.4 78.3004 1400.87 53.5972C1403.73 55.6724 1407.21 56.9324 1410.87 57.2181C1415.55 57.5046 1420.18 56.215 1423.87 53.5972C1426.5 57.1275 1442.66 78.0379 1473.87 82.5639C1506.95 87.2801 1530.49 69.7552 1533.87 67.1392Z" fill="#ECF7FF"/>
<path d="M1919.57 142.903V67.7711C1903.61 68.0004 1887.94 63.9021 1874.57 56.0034C1869.07 63.6795 1844.35 96.3123 1795.57 107.6C1740.89 120.273 1697.82 96.3847 1690.57 92.2117C1679.27 98.5612 1666.93 103.24 1654 106.07C1669.89 116.337 1688.52 122.565 1707.96 124.108C1727.41 125.65 1746.95 122.451 1764.57 114.842C1773.88 123.097 1801.28 145.239 1844.57 151.05C1869.93 154.387 1895.81 151.575 1919.57 142.903Z" fill="#ECF7FF"/>
</g>
</svg>
