<svg width="1920" height="158" viewBox="0 0 1920 158" fill="none" xmlns="http://www.w3.org/2000/svg">
<mask id="mask0_10_14" style="mask-type:alpha" maskUnits="userSpaceOnUse" x="0" y="0" width="1920" height="158">
<rect width="1920" height="158" fill="#D9D9D9"/>
</mask>
<g mask="url(#mask0_10_14)">
<path d="M1920 -409.73C1919.83 -123.898 1919.66 -197.605 1919.5 88.2154C1903.54 87.9867 1887.87 92.0794 1874.5 99.9682C1869 92.3011 1844.28 59.7113 1795.5 48.438C1740.82 35.7814 1697.75 59.6384 1690.5 63.806C1679.2 57.4653 1666.86 52.7923 1653.93 49.966C1635.07 45.6925 1615.31 45.7894 1596.5 50.2456C1562.43 58.3821 1542.02 78.3342 1533.5 88.2154C1532.25 89.6615 1531.26 90.9269 1530.5 91.8317C1525.89 90.3846 1505.13 84.3824 1482.5 93.6394C1469.75 98.9405 1459.23 107.817 1452.5 118.953C1450.12 117.081 1425.12 98.1595 1391.5 105.392C1357.23 112.805 1344.56 140.875 1343.5 143.362C1337 138.358 1328.64 135.764 1320.11 136.099C1311.58 136.435 1303.5 139.675 1297.5 145.17C1294.08 141.49 1281.98 129.367 1261.5 126.185C1232.84 121.728 1212.04 138.534 1209.5 140.649C1208.61 136.259 1206.11 132.267 1202.41 129.321C1198.7 126.375 1194 124.645 1189.07 124.413C1184.14 124.181 1179.26 125.459 1175.24 128.042C1171.21 130.624 1168.27 134.36 1166.88 138.642C1170.23 121.882 1156.26 107.543 1141.5 107.2C1127.18 106.874 1112.74 119.74 1114.19 136.129C1112.88 132.349 1110.33 129.021 1106.87 126.594C1103.41 124.166 1099.21 122.753 1094.84 122.546C1090.46 122.339 1086.12 123.349 1082.4 125.437C1078.68 127.526 1075.75 130.594 1074.02 134.231C1072.62 128.571 1069.21 123.482 1064.31 119.74C1059.4 115.998 1053.28 113.81 1046.88 113.509C1040.47 113.207 1034.13 114.81 1028.83 118.072C1023.52 121.333 1019.54 126.075 1017.5 131.573C1018.81 105.979 997.84 83.7941 970.5 80.9468C942 77.9727 915.16 96.9031 911.5 123.437C909.307 120.332 906.132 117.895 902.386 116.444C898.641 114.993 894.499 114.594 890.5 115.3C880.8 117.208 876.86 125.371 876.5 126.148C871.954 117.602 864.47 110.616 855.168 106.233C845.866 101.85 835.245 100.307 824.892 101.833C814.539 103.359 805.01 107.872 797.729 114.699C790.449 121.526 785.808 130.3 784.5 139.71C781.2 130.416 772.64 123.889 763.5 123.437C751.14 122.83 738.5 133.381 738.5 147.846C737.57 146.851 719.02 127.541 691.5 131.573C669.24 134.837 658.1 150.874 656.5 153.27C654.5 150.142 642.32 131.781 617.5 127.053C595.5 122.867 572.25 130.994 557.5 147.846C555.164 145.061 552.061 142.878 548.5 141.517C544.062 139.863 539.153 139.547 534.5 140.613C534.08 139.085 524.73 107.273 492.63 93.4856C489.361 92.0784 485.974 90.9089 482.5 89.9871C464.507 85.3421 445.243 86.955 428.5 94.5072C415.548 100.243 404.508 108.976 396.5 119.82C389.575 112.058 380.351 106.236 369.904 103.035C359.457 99.8333 348.219 99.3839 337.5 101.74C331.88 93.0431 314.16 68.2093 278.5 54.7298C232.89 37.4992 191.85 51.6648 183.5 54.7298C164.828 39.135 142.14 28.0065 117.5 22.3558C107.027 19.9988 96.2912 18.7285 85.5 18.5687C42 17.9445 11 35.266 0 42.1092V-409.73H1920Z" fill="#D9F0FF"/>
<path opacity="0.5" d="M1533.87 88.2144C1532.62 89.6615 1531.63 90.9269 1530.87 91.8307C1526.26 90.3846 1505.5 84.3814 1482.87 93.6394C1470.12 98.9395 1459.6 107.817 1452.87 118.952C1450.49 117.081 1425.49 98.1595 1391.87 105.391C1357.6 112.805 1344.93 140.875 1343.87 143.361C1337.37 138.357 1329.01 135.764 1320.48 136.099C1311.95 136.434 1303.87 139.675 1297.87 145.169C1294.45 141.489 1282.35 129.366 1261.87 126.184C1233.21 121.727 1212.41 138.533 1209.87 140.648C1208.98 136.258 1206.48 132.267 1202.78 129.32C1199.07 126.374 1194.37 124.645 1189.44 124.412C1184.51 124.181 1179.63 125.459 1175.61 128.041C1171.58 130.623 1168.64 134.359 1167.25 138.642C1170.6 121.881 1156.63 107.543 1141.87 107.2C1127.55 106.874 1113.11 119.738 1114.56 136.128C1113.25 132.349 1110.7 129.021 1107.24 126.593C1103.78 124.165 1099.58 122.753 1095.21 122.546C1090.83 122.339 1086.49 123.348 1082.77 125.437C1079.05 127.525 1076.12 130.594 1074.39 134.23C1072.99 128.571 1069.58 123.482 1064.68 119.74C1059.77 115.998 1053.65 113.809 1047.25 113.508C1040.84 113.207 1034.5 114.809 1029.2 118.072C1023.89 121.333 1019.91 126.075 1017.87 131.572C1019.18 105.979 998.21 83.7941 970.87 80.9458C942.37 77.9717 915.53 96.9021 911.87 123.436C909.677 120.331 906.502 117.895 902.756 116.444C899.011 114.993 894.869 114.594 890.87 115.299C881.17 117.207 877.23 125.37 876.87 126.148C872.324 117.602 864.84 110.615 855.538 106.232C846.236 101.85 835.615 100.306 825.262 101.832C814.909 103.358 805.38 107.872 798.099 114.699C790.819 121.526 786.178 130.3 784.87 139.709C781.57 130.415 773.01 123.888 763.87 123.436C751.51 122.831 738.87 133.381 738.87 147.845C737.94 146.85 719.39 127.54 691.87 131.572C669.61 134.836 658.47 150.873 656.87 153.269C654.87 150.141 642.69 131.78 617.87 127.052C595.87 122.866 572.62 130.994 557.87 147.845C555.534 145.06 552.431 142.878 548.87 141.516C544.432 139.862 539.523 139.546 534.87 140.612C534.45 139.084 525.1 107.272 493 93.4856C511.23 75.6936 538.51 68.6608 562.87 75.5219C592.24 83.7941 603.42 108.338 604.87 111.684C606.25 110.589 618.6 101.079 633.87 104.451C639.176 105.669 644.016 108.17 647.87 111.684C650.36 109.315 663.36 97.4354 683.87 97.2187C694.232 97.1708 704.359 100.012 712.87 105.355C711.59 54.5031 753.11 11.1183 806.87 5.00727C857.23 -0.715314 906.59 27.608 922.87 72.8104C925.08 71.7887 958.5 56.9709 988.87 73.7142C1006.87 83.6583 1013.76 99.0274 1015.87 104.451C1040.72 72.0234 1082.87 55.0544 1123.87 61.0576C1173.46 68.2902 1197.72 105.726 1200.87 110.779C1203.61 108.068 1218.42 93.7023 1242.87 92.6986C1257.32 92.2092 1271.5 96.3738 1282.87 104.451C1288.29 78.0356 1313.95 58.9513 1342.87 59.249C1370.22 59.5296 1394.4 77.0679 1400.87 101.739C1403.73 99.6666 1407.21 98.4082 1410.87 98.1225C1415.55 97.8369 1420.18 99.1253 1423.87 101.739C1426.5 98.2134 1442.66 77.3305 1473.87 72.8104C1506.95 68.0995 1530.49 85.6018 1533.87 88.2144Z" fill="white"/>
<path opacity="0.5" d="M1919.57 12.5485V87.5832C1903.61 87.3545 1887.94 91.4472 1874.57 99.336C1869.07 91.6699 1844.35 59.0792 1795.57 47.8058C1740.89 35.1492 1697.82 59.0073 1690.57 63.1749C1679.27 56.8331 1666.93 52.1611 1654 49.3338C1669.89 39.0801 1688.52 32.8602 1707.96 31.3202C1727.41 29.7792 1746.95 32.975 1764.57 40.5741C1773.88 32.3288 1801.28 10.2165 1844.57 4.41202C1869.93 1.08034 1895.81 3.8877 1919.57 12.5485Z" fill="white"/>
</g>
</svg>
