<svg width="220" height="70" viewBox="0 0 220 70" fill="none" xmlns="http://www.w3.org/2000/svg">
<rect x="1" y="1" width="218" height="68" rx="14" fill="black" stroke="black" stroke-width="2"/>
<path d="M73.579 29.255C72.4457 29.255 71.4427 28.9887 70.57 28.456C69.7087 27.9233 69.0343 27.1923 68.547 26.263C68.071 25.3337 67.833 24.274 67.833 23.084C67.833 21.8827 68.0767 20.8173 68.564 19.888C69.0513 18.9587 69.7257 18.2333 70.587 17.712C71.4597 17.1793 72.4513 16.913 73.562 16.913C74.8087 16.913 75.874 17.2077 76.758 17.797C77.642 18.375 78.2653 19.1853 78.628 20.228H76.928C76.6787 19.684 76.2593 19.242 75.67 18.902C75.0807 18.562 74.378 18.392 73.562 18.392C72.7687 18.392 72.066 18.5847 71.454 18.97C70.842 19.3553 70.3603 19.8993 70.009 20.602C69.6577 21.2933 69.482 22.1207 69.482 23.084C69.482 24.0247 69.652 24.852 69.992 25.566C70.3433 26.2687 70.825 26.8127 71.437 27.198C72.0603 27.5833 72.7857 27.776 73.613 27.776C74.327 27.776 74.956 27.6287 75.5 27.334C76.0553 27.028 76.486 26.6143 76.792 26.093C77.1093 25.5717 77.268 24.9767 77.268 24.308V24.002H73.562V22.557H78.883V24.036C78.883 25.0333 78.662 25.9287 78.22 26.722C77.778 27.504 77.1603 28.1217 76.367 28.575C75.5737 29.0283 74.6443 29.255 73.579 29.255ZM84.68 29.238C83.8187 29.238 83.0707 29.051 82.436 28.677C81.8127 28.303 81.331 27.7703 80.991 27.079C80.651 26.3877 80.481 25.5717 80.481 24.631C80.481 23.747 80.6453 22.965 80.974 22.285C81.314 21.5937 81.79 21.0497 82.402 20.653C83.0253 20.2563 83.7677 20.058 84.629 20.058C85.4563 20.058 86.1533 20.245 86.72 20.619C87.2867 20.9817 87.7173 21.4917 88.012 22.149C88.3067 22.795 88.454 23.5543 88.454 24.427V25.141H82.045C82.1243 26.025 82.3907 26.705 82.844 27.181C83.2973 27.6457 83.915 27.878 84.697 27.878C85.207 27.878 85.6377 27.793 85.989 27.623C86.3517 27.4417 86.5897 27.2093 86.703 26.926H88.267C88.063 27.6287 87.638 28.1897 86.992 28.609C86.346 29.0283 85.5753 29.238 84.68 29.238ZM84.612 21.418C83.898 21.418 83.32 21.639 82.878 22.081C82.4473 22.5117 82.181 23.1123 82.079 23.883H86.924C86.89 23.1463 86.6803 22.5513 86.295 22.098C85.921 21.6447 85.36 21.418 84.612 21.418ZM93.6159 29.068C92.7886 29.068 92.1539 28.8413 91.7119 28.388C91.2699 27.9233 91.0489 27.249 91.0489 26.365V21.656H89.5019V20.296H91.0489V17.525C91.5476 17.491 92.0519 17.3947 92.5619 17.236V20.296H94.4659V21.656H92.5619V26.229C92.5619 26.705 92.6752 27.0733 92.9019 27.334C93.1399 27.5833 93.4686 27.708 93.8879 27.708H94.4659V29.068H93.6159ZM102.136 29H100.521V17.168H102.136V29ZM108.076 29.068C107.249 29.068 106.614 28.8413 106.172 28.388C105.73 27.9233 105.509 27.249 105.509 26.365V21.656H103.962V20.296H105.509V17.525C106.008 17.491 106.512 17.3947 107.022 17.236V20.296H108.926V21.656H107.022V26.229C107.022 26.705 107.135 27.0733 107.362 27.334C107.6 27.5833 107.929 27.708 108.348 27.708H108.926V29.068H108.076ZM120.132 29.255C119.282 29.255 118.5 29.102 117.786 28.796C117.072 28.49 116.455 28.0593 115.933 27.504C115.412 26.9487 115.004 26.297 114.709 25.549C114.426 24.801 114.284 23.9793 114.284 23.084C114.284 22.1887 114.426 21.367 114.709 20.619C115.004 19.871 115.412 19.2193 115.933 18.664C116.455 18.1087 117.072 17.678 117.786 17.372C118.5 17.066 119.282 16.913 120.132 16.913C120.982 16.913 121.764 17.066 122.478 17.372C123.192 17.678 123.81 18.1087 124.331 18.664C124.853 19.2193 125.255 19.871 125.538 20.619C125.833 21.367 125.98 22.1887 125.98 23.084C125.98 23.9793 125.833 24.801 125.538 25.549C125.255 26.297 124.853 26.9487 124.331 27.504C123.81 28.0593 123.192 28.49 122.478 28.796C121.764 29.102 120.982 29.255 120.132 29.255ZM120.132 27.776C120.948 27.776 121.674 27.5777 122.308 27.181C122.943 26.7843 123.436 26.2347 123.787 25.532C124.15 24.818 124.331 24.002 124.331 23.084C124.331 22.166 124.15 21.3557 123.787 20.653C123.436 19.939 122.943 19.3837 122.308 18.987C121.674 18.5903 120.948 18.392 120.132 18.392C119.316 18.392 118.591 18.5903 117.956 18.987C117.333 19.3837 116.84 19.939 116.477 20.653C116.115 21.3557 115.933 22.166 115.933 23.084C115.933 24.002 116.115 24.818 116.477 25.532C116.84 26.2347 117.333 26.7843 117.956 27.181C118.591 27.5777 119.316 27.776 120.132 27.776ZM129.603 23.849V29H128.09V20.296H129.569V21.469C129.875 21.0157 130.266 20.67 130.742 20.432C131.218 20.1827 131.74 20.058 132.306 20.058C132.952 20.058 133.502 20.211 133.955 20.517C134.42 20.823 134.777 21.2423 135.026 21.775C135.276 22.3077 135.4 22.9197 135.4 23.611V29H133.887V23.9C133.887 23.1407 133.717 22.5457 133.377 22.115C133.049 21.673 132.55 21.452 131.881 21.452C131.485 21.452 131.111 21.5483 130.759 21.741C130.408 21.9223 130.125 22.1943 129.909 22.557C129.705 22.9083 129.603 23.339 129.603 23.849Z" fill="white"/>
<path d="M74.002 52.288C72.73 52.288 71.62 52.006 70.672 51.442C69.724 50.878 68.986 50.104 68.458 49.12C67.93 48.124 67.666 46.996 67.666 45.736C67.666 44.464 67.93 43.336 68.458 42.352C68.986 41.368 69.724 40.594 70.672 40.03C71.62 39.466 72.724 39.184 73.984 39.184C75.436 39.184 76.66 39.538 77.656 40.246C78.652 40.942 79.306 41.926 79.618 43.198H76.63C76.45 42.778 76.138 42.436 75.694 42.172C75.262 41.908 74.692 41.776 73.984 41.776C72.964 41.776 72.148 42.13 71.536 42.838C70.936 43.546 70.636 44.512 70.636 45.736C70.636 46.936 70.942 47.902 71.554 48.634C72.166 49.354 73.012 49.714 74.092 49.714C74.668 49.714 75.166 49.612 75.586 49.408C76.018 49.192 76.354 48.91 76.594 48.562C76.834 48.202 76.954 47.812 76.954 47.392V47.248H73.984V44.836H79.834V46.69C79.834 47.734 79.606 48.682 79.15 49.534C78.694 50.374 78.028 51.046 77.152 51.55C76.288 52.042 75.238 52.288 74.002 52.288ZM85.8992 52.27C84.9632 52.27 84.1352 52.06 83.4152 51.64C82.6952 51.22 82.1312 50.638 81.7232 49.894C81.3152 49.138 81.1112 48.274 81.1112 47.302C81.1112 46.33 81.3152 45.472 81.7232 44.728C82.1312 43.984 82.6952 43.402 83.4152 42.982C84.1352 42.562 84.9632 42.352 85.8992 42.352C86.8472 42.352 87.6812 42.562 88.4012 42.982C89.1212 43.402 89.6852 43.984 90.0932 44.728C90.5012 45.472 90.7052 46.33 90.7052 47.302C90.7052 48.274 90.5012 49.138 90.0932 49.894C89.6852 50.638 89.1212 51.22 88.4012 51.64C87.6812 52.06 86.8472 52.27 85.8992 52.27ZM85.8992 49.876C86.4992 49.876 86.9852 49.648 87.3572 49.192C87.7412 48.724 87.9332 48.094 87.9332 47.302C87.9332 46.51 87.7412 45.886 87.3572 45.43C86.9852 44.974 86.4992 44.746 85.8992 44.746C85.3112 44.746 84.8252 44.974 84.4412 45.43C84.0692 45.886 83.8832 46.51 83.8832 47.302C83.8832 48.094 84.0692 48.724 84.4412 49.192C84.8252 49.648 85.3112 49.876 85.8992 49.876ZM96.6394 52.27C95.7034 52.27 94.8754 52.06 94.1554 51.64C93.4354 51.22 92.8714 50.638 92.4634 49.894C92.0554 49.138 91.8514 48.274 91.8514 47.302C91.8514 46.33 92.0554 45.472 92.4634 44.728C92.8714 43.984 93.4354 43.402 94.1554 42.982C94.8754 42.562 95.7034 42.352 96.6394 42.352C97.5874 42.352 98.4214 42.562 99.1414 42.982C99.8614 43.402 100.425 43.984 100.833 44.728C101.241 45.472 101.445 46.33 101.445 47.302C101.445 48.274 101.241 49.138 100.833 49.894C100.425 50.638 99.8614 51.22 99.1414 51.64C98.4214 52.06 97.5874 52.27 96.6394 52.27ZM96.6394 49.876C97.2394 49.876 97.7254 49.648 98.0974 49.192C98.4814 48.724 98.6734 48.094 98.6734 47.302C98.6734 46.51 98.4814 45.886 98.0974 45.43C97.7254 44.974 97.2394 44.746 96.6394 44.746C96.0514 44.746 95.5654 44.974 95.1814 45.43C94.8094 45.886 94.6234 46.51 94.6234 47.302C94.6234 48.094 94.8094 48.724 95.1814 49.192C95.5654 49.648 96.0514 49.876 96.6394 49.876ZM106.696 51.892C105.892 51.892 105.178 51.688 104.554 51.28C103.942 50.872 103.462 50.308 103.114 49.588C102.766 48.868 102.592 48.046 102.592 47.122C102.592 46.198 102.766 45.376 103.114 44.656C103.462 43.936 103.942 43.372 104.554 42.964C105.178 42.556 105.892 42.352 106.696 42.352C107.296 42.352 107.824 42.472 108.28 42.712C108.736 42.952 109.12 43.276 109.432 43.684V42.622H112.042V51.586C112.042 52.99 111.628 54.07 110.8 54.826C109.984 55.582 108.874 55.96 107.47 55.96C106.258 55.96 105.238 55.678 104.41 55.114C103.594 54.562 103.084 53.836 102.88 52.936H105.688C105.82 53.164 106.036 53.344 106.336 53.476C106.636 53.62 106.99 53.692 107.398 53.692C108.01 53.692 108.484 53.542 108.82 53.242C109.156 52.942 109.324 52.468 109.324 51.82V50.686C109.012 51.058 108.634 51.352 108.19 51.568C107.746 51.784 107.248 51.892 106.696 51.892ZM107.38 49.516C107.98 49.516 108.472 49.294 108.856 48.85C109.252 48.406 109.45 47.824 109.45 47.104C109.45 46.396 109.252 45.82 108.856 45.376C108.472 44.932 107.98 44.71 107.38 44.71C106.792 44.71 106.306 44.932 105.922 45.376C105.55 45.82 105.364 46.396 105.364 47.104C105.364 47.824 105.55 48.406 105.922 48.85C106.306 49.294 106.792 49.516 107.38 49.516ZM114.205 52V38.95H116.941V52H114.205ZM123.339 52.27C121.863 52.27 120.705 51.826 119.865 50.938C119.025 50.038 118.605 48.814 118.605 47.266C118.605 46.33 118.791 45.49 119.163 44.746C119.547 44.002 120.087 43.42 120.783 43C121.479 42.568 122.313 42.352 123.285 42.352C124.689 42.352 125.769 42.802 126.525 43.702C127.281 44.59 127.659 45.796 127.659 47.32V48.184H121.323C121.527 49.48 122.205 50.128 123.357 50.128C123.741 50.128 124.053 50.068 124.293 49.948C124.533 49.828 124.701 49.684 124.797 49.516H127.515C127.287 50.356 126.807 51.028 126.075 51.532C125.343 52.024 124.431 52.27 123.339 52.27ZM123.267 44.494C122.175 44.494 121.527 45.106 121.323 46.33H125.031C125.007 45.79 124.845 45.352 124.545 45.016C124.257 44.668 123.831 44.494 123.267 44.494ZM133.546 52V39.472H138.73C139.762 39.472 140.65 39.652 141.394 40.012C142.138 40.372 142.708 40.876 143.104 41.524C143.5 42.172 143.698 42.928 143.698 43.792C143.698 44.656 143.5 45.418 143.104 46.078C142.708 46.726 142.138 47.23 141.394 47.59C140.65 47.95 139.762 48.13 138.73 48.13H136.48V52H133.546ZM136.48 45.646H138.298C139.15 45.646 139.768 45.49 140.152 45.178C140.536 44.854 140.728 44.392 140.728 43.792C140.728 43.204 140.536 42.754 140.152 42.442C139.768 42.118 139.15 41.956 138.298 41.956H136.48V45.646ZM145.318 52V38.95H148.054V52H145.318ZM152.887 52.27C151.903 52.27 151.117 52 150.529 51.46C149.941 50.908 149.647 50.182 149.647 49.282C149.647 48.298 150.001 47.536 150.709 46.996C151.417 46.456 152.395 46.186 153.643 46.186H155.353V45.862C155.353 45.394 155.221 45.052 154.957 44.836C154.693 44.608 154.333 44.494 153.877 44.494C153.481 44.494 153.163 44.572 152.923 44.728C152.683 44.872 152.533 45.04 152.473 45.232H149.899C150.055 44.416 150.481 43.732 151.177 43.18C151.873 42.628 152.803 42.352 153.967 42.352C155.215 42.352 156.199 42.658 156.919 43.27C157.651 43.882 158.017 44.848 158.017 46.168V52H155.533V50.938C155.245 51.406 154.855 51.748 154.363 51.964C153.883 52.168 153.391 52.27 152.887 52.27ZM153.607 50.146C153.883 50.146 154.153 50.086 154.417 49.966C154.693 49.846 154.915 49.672 155.083 49.444C155.263 49.204 155.353 48.91 155.353 48.562V48.022H153.769C153.289 48.022 152.917 48.118 152.653 48.31C152.401 48.49 152.275 48.754 152.275 49.102C152.275 49.438 152.401 49.696 152.653 49.876C152.905 50.056 153.223 50.146 153.607 50.146ZM160.833 55.69L162.363 52L158.691 42.622H161.805L163.857 48.778L165.891 42.622H168.807L163.749 55.69H160.833Z" fill="white"/>
<path d="M36.0417 44.25V48.625C36.0417 49.4271 35.3854 50.0833 34.5833 50.0833C33.7813 50.0833 33.125 49.4271 33.125 48.625V44.25H36.0417Z" fill="white"/>
<path d="M41.8757 44.25V48.625C41.8757 49.4271 41.2194 50.0833 40.4173 50.0833C39.6152 50.0833 38.959 49.4271 38.959 48.625V44.25H41.8757Z" fill="white"/>
<path d="M44.7923 34.0417V41.3333C44.7923 42.9375 43.4798 44.25 41.8757 44.25H33.1257C31.5215 44.25 30.209 42.9375 30.209 41.3333V34.0417C30.209 32.4375 31.5215 31.125 33.1257 31.125H41.8757C43.4798 31.125 44.7923 32.4375 44.7923 34.0417Z" fill="white"/>
<path d="M27.2917 34.0418V39.8752C27.2917 40.6772 26.6354 41.3335 25.8333 41.3335C25.0312 41.3335 24.375 40.6772 24.375 39.8752V34.0418C24.375 33.2397 25.0312 32.5835 25.8333 32.5835C26.6354 32.5835 27.2917 33.2397 27.2917 34.0418Z" fill="white"/>
<path d="M50.6257 34.0418V39.8752C50.6257 40.6772 49.9694 41.3335 49.1673 41.3335C48.3652 41.3335 47.709 40.6772 47.709 39.8752V34.0418C47.709 33.2397 48.3652 32.5835 49.1673 32.5835C49.9694 32.5835 50.6257 33.2397 50.6257 34.0418Z" fill="white"/>
<path d="M33.9993 29.0832H40.9994C42.2827 29.0832 43.3327 28.0332 43.3327 26.7498C43.3327 23.5269 40.7223 20.9165 37.4993 20.9165C34.2764 20.9165 31.666 23.5269 31.666 26.7498C31.666 28.0332 32.716 29.0832 33.9993 29.0832Z" fill="white"/>
</svg>
