<svg width="221" height="70" viewBox="0 0 221 70" fill="none" xmlns="http://www.w3.org/2000/svg">
<rect x="1.5" y="1" width="218" height="68" rx="14" fill="white" stroke="white" stroke-width="2"/>
<path d="M74.079 29.255C72.9457 29.255 71.9427 28.9887 71.07 28.456C70.2087 27.9233 69.5343 27.1923 69.047 26.263C68.571 25.3337 68.333 24.274 68.333 23.084C68.333 21.8827 68.5767 20.8173 69.064 19.888C69.5513 18.9587 70.2257 18.2333 71.087 17.712C71.9597 17.1793 72.9513 16.913 74.062 16.913C75.3087 16.913 76.374 17.2077 77.258 17.797C78.142 18.375 78.7653 19.1853 79.128 20.228H77.428C77.1787 19.684 76.7593 19.242 76.17 18.902C75.5807 18.562 74.878 18.392 74.062 18.392C73.2687 18.392 72.566 18.5847 71.954 18.97C71.342 19.3553 70.8603 19.8993 70.509 20.602C70.1577 21.2933 69.982 22.1207 69.982 23.084C69.982 24.0247 70.152 24.852 70.492 25.566C70.8433 26.2687 71.325 26.8127 71.937 27.198C72.5603 27.5833 73.2857 27.776 74.113 27.776C74.827 27.776 75.456 27.6287 76 27.334C76.5553 27.028 76.986 26.6143 77.292 26.093C77.6093 25.5717 77.768 24.9767 77.768 24.308V24.002H74.062V22.557H79.383V24.036C79.383 25.0333 79.162 25.9287 78.72 26.722C78.278 27.504 77.6603 28.1217 76.867 28.575C76.0737 29.0283 75.1443 29.255 74.079 29.255ZM85.18 29.238C84.3187 29.238 83.5707 29.051 82.936 28.677C82.3127 28.303 81.831 27.7703 81.491 27.079C81.151 26.3877 80.981 25.5717 80.981 24.631C80.981 23.747 81.1453 22.965 81.474 22.285C81.814 21.5937 82.29 21.0497 82.902 20.653C83.5253 20.2563 84.2677 20.058 85.129 20.058C85.9563 20.058 86.6533 20.245 87.22 20.619C87.7867 20.9817 88.2173 21.4917 88.512 22.149C88.8067 22.795 88.954 23.5543 88.954 24.427V25.141H82.545C82.6243 26.025 82.8907 26.705 83.344 27.181C83.7973 27.6457 84.415 27.878 85.197 27.878C85.707 27.878 86.1377 27.793 86.489 27.623C86.8517 27.4417 87.0897 27.2093 87.203 26.926H88.767C88.563 27.6287 88.138 28.1897 87.492 28.609C86.846 29.0283 86.0753 29.238 85.18 29.238ZM85.112 21.418C84.398 21.418 83.82 21.639 83.378 22.081C82.9473 22.5117 82.681 23.1123 82.579 23.883H87.424C87.39 23.1463 87.1803 22.5513 86.795 22.098C86.421 21.6447 85.86 21.418 85.112 21.418ZM94.1159 29.068C93.2886 29.068 92.6539 28.8413 92.2119 28.388C91.7699 27.9233 91.5489 27.249 91.5489 26.365V21.656H90.0019V20.296H91.5489V17.525C92.0476 17.491 92.5519 17.3947 93.0619 17.236V20.296H94.9659V21.656H93.0619V26.229C93.0619 26.705 93.1752 27.0733 93.4019 27.334C93.6399 27.5833 93.9686 27.708 94.3879 27.708H94.9659V29.068H94.1159ZM102.636 29H101.021V17.168H102.636V29ZM108.576 29.068C107.749 29.068 107.114 28.8413 106.672 28.388C106.23 27.9233 106.009 27.249 106.009 26.365V21.656H104.462V20.296H106.009V17.525C106.508 17.491 107.012 17.3947 107.522 17.236V20.296H109.426V21.656H107.522V26.229C107.522 26.705 107.635 27.0733 107.862 27.334C108.1 27.5833 108.429 27.708 108.848 27.708H109.426V29.068H108.576ZM120.632 29.255C119.782 29.255 119 29.102 118.286 28.796C117.572 28.49 116.955 28.0593 116.433 27.504C115.912 26.9487 115.504 26.297 115.209 25.549C114.926 24.801 114.784 23.9793 114.784 23.084C114.784 22.1887 114.926 21.367 115.209 20.619C115.504 19.871 115.912 19.2193 116.433 18.664C116.955 18.1087 117.572 17.678 118.286 17.372C119 17.066 119.782 16.913 120.632 16.913C121.482 16.913 122.264 17.066 122.978 17.372C123.692 17.678 124.31 18.1087 124.831 18.664C125.353 19.2193 125.755 19.871 126.038 20.619C126.333 21.367 126.48 22.1887 126.48 23.084C126.48 23.9793 126.333 24.801 126.038 25.549C125.755 26.297 125.353 26.9487 124.831 27.504C124.31 28.0593 123.692 28.49 122.978 28.796C122.264 29.102 121.482 29.255 120.632 29.255ZM120.632 27.776C121.448 27.776 122.174 27.5777 122.808 27.181C123.443 26.7843 123.936 26.2347 124.287 25.532C124.65 24.818 124.831 24.002 124.831 23.084C124.831 22.166 124.65 21.3557 124.287 20.653C123.936 19.939 123.443 19.3837 122.808 18.987C122.174 18.5903 121.448 18.392 120.632 18.392C119.816 18.392 119.091 18.5903 118.456 18.987C117.833 19.3837 117.34 19.939 116.977 20.653C116.615 21.3557 116.433 22.166 116.433 23.084C116.433 24.002 116.615 24.818 116.977 25.532C117.34 26.2347 117.833 26.7843 118.456 27.181C119.091 27.5777 119.816 27.776 120.632 27.776ZM130.103 23.849V29H128.59V20.296H130.069V21.469C130.375 21.0157 130.766 20.67 131.242 20.432C131.718 20.1827 132.24 20.058 132.806 20.058C133.452 20.058 134.002 20.211 134.455 20.517C134.92 20.823 135.277 21.2423 135.526 21.775C135.776 22.3077 135.9 22.9197 135.9 23.611V29H134.387V23.9C134.387 23.1407 134.217 22.5457 133.877 22.115C133.549 21.673 133.05 21.452 132.381 21.452C131.985 21.452 131.611 21.5483 131.259 21.741C130.908 21.9223 130.625 22.1943 130.409 22.557C130.205 22.9083 130.103 23.339 130.103 23.849Z" fill="url(#paint0_linear_862_152407)"/>
<path d="M74.502 52.288C73.23 52.288 72.12 52.006 71.172 51.442C70.224 50.878 69.486 50.104 68.958 49.12C68.43 48.124 68.166 46.996 68.166 45.736C68.166 44.464 68.43 43.336 68.958 42.352C69.486 41.368 70.224 40.594 71.172 40.03C72.12 39.466 73.224 39.184 74.484 39.184C75.936 39.184 77.16 39.538 78.156 40.246C79.152 40.942 79.806 41.926 80.118 43.198H77.13C76.95 42.778 76.638 42.436 76.194 42.172C75.762 41.908 75.192 41.776 74.484 41.776C73.464 41.776 72.648 42.13 72.036 42.838C71.436 43.546 71.136 44.512 71.136 45.736C71.136 46.936 71.442 47.902 72.054 48.634C72.666 49.354 73.512 49.714 74.592 49.714C75.168 49.714 75.666 49.612 76.086 49.408C76.518 49.192 76.854 48.91 77.094 48.562C77.334 48.202 77.454 47.812 77.454 47.392V47.248H74.484V44.836H80.334V46.69C80.334 47.734 80.106 48.682 79.65 49.534C79.194 50.374 78.528 51.046 77.652 51.55C76.788 52.042 75.738 52.288 74.502 52.288ZM86.3992 52.27C85.4632 52.27 84.6352 52.06 83.9152 51.64C83.1952 51.22 82.6312 50.638 82.2232 49.894C81.8152 49.138 81.6112 48.274 81.6112 47.302C81.6112 46.33 81.8152 45.472 82.2232 44.728C82.6312 43.984 83.1952 43.402 83.9152 42.982C84.6352 42.562 85.4632 42.352 86.3992 42.352C87.3472 42.352 88.1812 42.562 88.9012 42.982C89.6212 43.402 90.1852 43.984 90.5932 44.728C91.0012 45.472 91.2052 46.33 91.2052 47.302C91.2052 48.274 91.0012 49.138 90.5932 49.894C90.1852 50.638 89.6212 51.22 88.9012 51.64C88.1812 52.06 87.3472 52.27 86.3992 52.27ZM86.3992 49.876C86.9992 49.876 87.4852 49.648 87.8572 49.192C88.2412 48.724 88.4332 48.094 88.4332 47.302C88.4332 46.51 88.2412 45.886 87.8572 45.43C87.4852 44.974 86.9992 44.746 86.3992 44.746C85.8112 44.746 85.3252 44.974 84.9412 45.43C84.5692 45.886 84.3832 46.51 84.3832 47.302C84.3832 48.094 84.5692 48.724 84.9412 49.192C85.3252 49.648 85.8112 49.876 86.3992 49.876ZM97.1394 52.27C96.2034 52.27 95.3754 52.06 94.6554 51.64C93.9354 51.22 93.3714 50.638 92.9634 49.894C92.5554 49.138 92.3514 48.274 92.3514 47.302C92.3514 46.33 92.5554 45.472 92.9634 44.728C93.3714 43.984 93.9354 43.402 94.6554 42.982C95.3754 42.562 96.2034 42.352 97.1394 42.352C98.0874 42.352 98.9214 42.562 99.6414 42.982C100.361 43.402 100.925 43.984 101.333 44.728C101.741 45.472 101.945 46.33 101.945 47.302C101.945 48.274 101.741 49.138 101.333 49.894C100.925 50.638 100.361 51.22 99.6414 51.64C98.9214 52.06 98.0874 52.27 97.1394 52.27ZM97.1394 49.876C97.7394 49.876 98.2254 49.648 98.5974 49.192C98.9814 48.724 99.1734 48.094 99.1734 47.302C99.1734 46.51 98.9814 45.886 98.5974 45.43C98.2254 44.974 97.7394 44.746 97.1394 44.746C96.5514 44.746 96.0654 44.974 95.6814 45.43C95.3094 45.886 95.1234 46.51 95.1234 47.302C95.1234 48.094 95.3094 48.724 95.6814 49.192C96.0654 49.648 96.5514 49.876 97.1394 49.876ZM107.196 51.892C106.392 51.892 105.678 51.688 105.054 51.28C104.442 50.872 103.962 50.308 103.614 49.588C103.266 48.868 103.092 48.046 103.092 47.122C103.092 46.198 103.266 45.376 103.614 44.656C103.962 43.936 104.442 43.372 105.054 42.964C105.678 42.556 106.392 42.352 107.196 42.352C107.796 42.352 108.324 42.472 108.78 42.712C109.236 42.952 109.62 43.276 109.932 43.684V42.622H112.542V51.586C112.542 52.99 112.128 54.07 111.3 54.826C110.484 55.582 109.374 55.96 107.97 55.96C106.758 55.96 105.738 55.678 104.91 55.114C104.094 54.562 103.584 53.836 103.38 52.936H106.188C106.32 53.164 106.536 53.344 106.836 53.476C107.136 53.62 107.49 53.692 107.898 53.692C108.51 53.692 108.984 53.542 109.32 53.242C109.656 52.942 109.824 52.468 109.824 51.82V50.686C109.512 51.058 109.134 51.352 108.69 51.568C108.246 51.784 107.748 51.892 107.196 51.892ZM107.88 49.516C108.48 49.516 108.972 49.294 109.356 48.85C109.752 48.406 109.95 47.824 109.95 47.104C109.95 46.396 109.752 45.82 109.356 45.376C108.972 44.932 108.48 44.71 107.88 44.71C107.292 44.71 106.806 44.932 106.422 45.376C106.05 45.82 105.864 46.396 105.864 47.104C105.864 47.824 106.05 48.406 106.422 48.85C106.806 49.294 107.292 49.516 107.88 49.516ZM114.705 52V38.95H117.441V52H114.705ZM123.839 52.27C122.363 52.27 121.205 51.826 120.365 50.938C119.525 50.038 119.105 48.814 119.105 47.266C119.105 46.33 119.291 45.49 119.663 44.746C120.047 44.002 120.587 43.42 121.283 43C121.979 42.568 122.813 42.352 123.785 42.352C125.189 42.352 126.269 42.802 127.025 43.702C127.781 44.59 128.159 45.796 128.159 47.32V48.184H121.823C122.027 49.48 122.705 50.128 123.857 50.128C124.241 50.128 124.553 50.068 124.793 49.948C125.033 49.828 125.201 49.684 125.297 49.516H128.015C127.787 50.356 127.307 51.028 126.575 51.532C125.843 52.024 124.931 52.27 123.839 52.27ZM123.767 44.494C122.675 44.494 122.027 45.106 121.823 46.33H125.531C125.507 45.79 125.345 45.352 125.045 45.016C124.757 44.668 124.331 44.494 123.767 44.494ZM134.046 52V39.472H139.23C140.262 39.472 141.15 39.652 141.894 40.012C142.638 40.372 143.208 40.876 143.604 41.524C144 42.172 144.198 42.928 144.198 43.792C144.198 44.656 144 45.418 143.604 46.078C143.208 46.726 142.638 47.23 141.894 47.59C141.15 47.95 140.262 48.13 139.23 48.13H136.98V52H134.046ZM136.98 45.646H138.798C139.65 45.646 140.268 45.49 140.652 45.178C141.036 44.854 141.228 44.392 141.228 43.792C141.228 43.204 141.036 42.754 140.652 42.442C140.268 42.118 139.65 41.956 138.798 41.956H136.98V45.646ZM145.818 52V38.95H148.554V52H145.818ZM153.387 52.27C152.403 52.27 151.617 52 151.029 51.46C150.441 50.908 150.147 50.182 150.147 49.282C150.147 48.298 150.501 47.536 151.209 46.996C151.917 46.456 152.895 46.186 154.143 46.186H155.853V45.862C155.853 45.394 155.721 45.052 155.457 44.836C155.193 44.608 154.833 44.494 154.377 44.494C153.981 44.494 153.663 44.572 153.423 44.728C153.183 44.872 153.033 45.04 152.973 45.232H150.399C150.555 44.416 150.981 43.732 151.677 43.18C152.373 42.628 153.303 42.352 154.467 42.352C155.715 42.352 156.699 42.658 157.419 43.27C158.151 43.882 158.517 44.848 158.517 46.168V52H156.033V50.938C155.745 51.406 155.355 51.748 154.863 51.964C154.383 52.168 153.891 52.27 153.387 52.27ZM154.107 50.146C154.383 50.146 154.653 50.086 154.917 49.966C155.193 49.846 155.415 49.672 155.583 49.444C155.763 49.204 155.853 48.91 155.853 48.562V48.022H154.269C153.789 48.022 153.417 48.118 153.153 48.31C152.901 48.49 152.775 48.754 152.775 49.102C152.775 49.438 152.901 49.696 153.153 49.876C153.405 50.056 153.723 50.146 154.107 50.146ZM161.333 55.69L162.863 52L159.191 42.622H162.305L164.357 48.778L166.391 42.622H169.307L164.249 55.69H161.333Z" fill="url(#paint1_linear_862_152407)"/>
<path d="M36.5417 44.25V48.625C36.5417 49.4271 35.8854 50.0833 35.0833 50.0833C34.2813 50.0833 33.625 49.4271 33.625 48.625V44.25H36.5417Z" fill="url(#paint2_linear_862_152407)"/>
<path d="M42.3757 44.25V48.625C42.3757 49.4271 41.7194 50.0833 40.9173 50.0833C40.1152 50.0833 39.459 49.4271 39.459 48.625V44.25H42.3757Z" fill="url(#paint3_linear_862_152407)"/>
<path d="M45.2923 34.0417V41.3333C45.2923 42.9375 43.9798 44.25 42.3757 44.25H33.6257C32.0215 44.25 30.709 42.9375 30.709 41.3333V34.0417C30.709 32.4375 32.0215 31.125 33.6257 31.125H42.3757C43.9798 31.125 45.2923 32.4375 45.2923 34.0417Z" fill="url(#paint4_linear_862_152407)"/>
<path d="M27.7917 34.0413V39.8747C27.7917 40.6768 27.1354 41.333 26.3333 41.333C25.5312 41.333 24.875 40.6768 24.875 39.8747V34.0413C24.875 33.2393 25.5312 32.583 26.3333 32.583C27.1354 32.583 27.7917 33.2393 27.7917 34.0413Z" fill="url(#paint5_linear_862_152407)"/>
<path d="M51.1257 34.0413V39.8747C51.1257 40.6768 50.4694 41.333 49.6673 41.333C48.8652 41.333 48.209 40.6768 48.209 39.8747V34.0413C48.209 33.2393 48.8652 32.583 49.6673 32.583C50.4694 32.583 51.1257 33.2393 51.1257 34.0413Z" fill="url(#paint6_linear_862_152407)"/>
<path d="M34.4993 29.0837H41.4994C42.7827 29.0837 43.8327 28.0337 43.8327 26.7503C43.8327 23.5274 41.2223 20.917 37.9993 20.917C34.7764 20.917 32.166 23.5274 32.166 26.7503C32.166 28.0337 33.216 29.0837 34.4993 29.0837Z" fill="url(#paint7_linear_862_152407)"/>
<defs>
<linearGradient id="paint0_linear_862_152407" x1="67.5" y1="12" x2="80.9008" y2="52.6559" gradientUnits="userSpaceOnUse">
<stop stop-color="#1E3E59"/>
<stop offset="1" stop-color="#062938"/>
</linearGradient>
<linearGradient id="paint1_linear_862_152407" x1="67.5" y1="34" x2="78.0535" y2="78.626" gradientUnits="userSpaceOnUse">
<stop stop-color="#1E3E59"/>
<stop offset="1" stop-color="#062938"/>
</linearGradient>
<linearGradient id="paint2_linear_862_152407" x1="33.625" y1="44.25" x2="38.2675" y2="46.4633" gradientUnits="userSpaceOnUse">
<stop stop-color="#1E3E59"/>
<stop offset="1" stop-color="#062938"/>
</linearGradient>
<linearGradient id="paint3_linear_862_152407" x1="39.459" y1="44.25" x2="44.1015" y2="46.4633" gradientUnits="userSpaceOnUse">
<stop stop-color="#1E3E59"/>
<stop offset="1" stop-color="#062938"/>
</linearGradient>
<linearGradient id="paint4_linear_862_152407" x1="30.709" y1="31.125" x2="44.1317" y2="45.3455" gradientUnits="userSpaceOnUse">
<stop stop-color="#1E3E59"/>
<stop offset="1" stop-color="#062938"/>
</linearGradient>
<linearGradient id="paint5_linear_862_152407" x1="24.875" y1="32.583" x2="30.0499" y2="34.2278" gradientUnits="userSpaceOnUse">
<stop stop-color="#1E3E59"/>
<stop offset="1" stop-color="#062938"/>
</linearGradient>
<linearGradient id="paint6_linear_862_152407" x1="48.209" y1="32.583" x2="53.3839" y2="34.2278" gradientUnits="userSpaceOnUse">
<stop stop-color="#1E3E59"/>
<stop offset="1" stop-color="#062938"/>
</linearGradient>
<linearGradient id="paint7_linear_862_152407" x1="32.166" y1="20.917" x2="40.1476" y2="31.789" gradientUnits="userSpaceOnUse">
<stop stop-color="#1E3E59"/>
<stop offset="1" stop-color="#062938"/>
</linearGradient>
</defs>
</svg>
